<svg width="80" height="27" fill="none" xmlns="http://www.w3.org/2000/svg"><path d="M19.56 26.56c-.133 0-.398-.132-.664-.53l-.663-1.86h-4.115l-.663 1.86c-.133.398-.399.53-.664.53s-.664-.265-.664-.664c0-.132 0-.265.133-.398l3.185-7.968c.266-.664.531-.664.797-.664.265 0 .53.133.796.664l3.185 7.968c.133.133.133.266.133.398-.133.399-.53.664-.796.664zm-1.858-3.718l-1.593-4.25-1.593 4.25h3.186zm9.556-4.914c.132-.133.132-.398.132-.398 0-.399-.265-.664-.663-.664-.266 0-.531.133-.664.531l-2.787 7.304-2.787-7.304c-.133-.398-.398-.531-.664-.531-.398 0-.663.265-.663.664 0 .133 0 .265.132.398l3.053 7.836c.265.664.664.796.929.796s.664-.132.93-.796l3.052-7.836zm6.503 4.117c.53 0 .664-.398.664-.531s-.133-.531-.664-.531h-3.982v-2.79h4.247c.531 0 .664-.398.664-.53 0-.133-.133-.532-.663-.532h-4.779c-.53 0-.796.266-.796.797v7.968c0 .532.266.797.796.797h4.911c.531 0 .664-.398.664-.531s-.133-.531-.664-.531h-4.38v-3.188h3.982v-.398zm21.103 4.515c-.133 0-.398-.132-.664-.53l-.664-1.86h-4.114l-.663 1.86c-.133.398-.399.53-.664.53s-.664-.265-.664-.664c0-.132 0-.265.133-.398l3.185-7.968c.266-.664.531-.664.797-.664.265 0 .53.133.796.664l3.185 7.968c.133.133.133.266.133.398-.133.399-.398.664-.796.664zm-1.726-3.718l-1.592-4.25-1.593 4.25h3.185zm-7.432 3.718c.265 0 .664-.132.664-.796v-8.101c0-.797-.531-.93-.797-.93-.265 0-.663.133-.929.797L41.46 24.7l-3.185-7.171c-.266-.664-.664-.797-.93-.797-.265 0-.796.133-.796.93v8.1c0 .665.398.665.664.665.265 0 .663-.133.663-.664v-6.11l2.788 6.242c.265.532.53.664.796.664.265 0 .53-.132.796-.664l2.787-6.374v6.242c0 .664.398.796.664.796zm18.183-.664c0-.132 0-.398-.266-.53L59.51 21.38l3.849-3.32c.265-.265.265-.398.265-.531 0-.399-.265-.531-.663-.531-.133 0-.398.133-.531.265l-4.38 3.984V17.53c0-.664-.398-.797-.663-.797-.266 0-.664.133-.664.797v8.234c0 .664.398.796.663.796.266 0 .664-.132.664-.796v-4.25l4.645 4.78c.133.266.398.266.531.266.398 0 .664-.398.664-.664zm6.636-3.85c.53 0 .663-.4.663-.532 0-.133-.132-.531-.663-.531h-3.982v-2.79h4.247c.531 0 .664-.398.664-.53 0-.133-.133-.532-.664-.532h-4.778c-.53 0-.796.266-.796.797v7.968c0 .532.266.797.796.797h4.911c.53 0 .664-.398.664-.531s-.133-.531-.664-.531h-4.38v-3.188h3.982v-.398zm5.309.132h-1.46v3.586c0 .664-.398.796-.664.796-.265 0-.663-.132-.663-.796v-8.101c0-.532.265-.797.796-.797h2.256c1.858 0 3.318.664 3.318 2.656 0 1.328-.929 2.258-2.256 2.523l2.256 3.32c.133.133.133.399.133.399 0 .398-.266.664-.664.664-.132 0-.398-.133-.53-.399l-2.522-3.851zm-1.46-1.195h1.593c1.194 0 2.256-.399 2.256-1.594s-.93-1.46-2.124-1.46h-1.593v3.054h-.132zm-61.716-4.117c-.398-.133-.796 0-.929.398l-2.654 7.172-1.858-7.172c-.133-.265-.398-.531-.664-.531-.265 0-.53.133-.663.531L4.03 24.436l-2.654-7.172c-.133-.398-.53-.531-.929-.398-.398.133-.531.531-.398.93l3.052 8.1c.133.266.266.399.531.532.531.132 1.062 0 1.195-.532v-.132l1.592-6.242 1.593 6.242v.132c.133.532.796.797 1.195.532.265-.133.398-.266.53-.532l3.053-8.1c.398-.399.265-.797-.133-.93zM53.006 11.953h-.399c-.53 0-1.061-.399-1.194-.93L49.555 5.18l-1.858 5.843c-.133.531-.664 0-1.195 0-.53 0-1.062.531-1.194 0L43.45 5.18l-1.858 5.843c-.133.531-.664.93-1.195.93h-.398c-.664-.266-1.062-.93-.797-1.594L42.255.93c.133-.531.664 0 1.195 0 .53 0 1.061-.531 1.194 0l1.858 5.843L48.36.93c.133-.531.664 0 1.195 0 .53 0 1.062-.531 1.194 0l3.053 9.429c.265.664-.133 1.328-.796 1.594zM39.6.133h-.398c-.531 0-1.062.399-1.195.93L36.15 6.906l-1.858-5.843c-.133-.531-.664 0-1.195 0-.53 0-1.062-.531-1.194 0l-1.858 5.843-1.858-5.843c-.133-.531-.664-.93-1.195-.93h-.398c-.664.266-1.062.93-.796 1.594l3.052 9.429c.133.531.664 0 1.195 0 .53 0 1.061.531 1.194 0l1.858-5.844 1.858 5.844c.133.531.664 0 1.195 0 .53 0 1.062.531 1.194 0l3.053-9.43c.266-.663-.133-1.46-.796-1.593z" fill="#fff"/><path d="M49.555 0c.53 0 1.062.398 1.194.93a.847.847 0 010 .796l-1.194 3.586-1.195-3.586a.847.847 0 010-.796c.133-.532.664-.93 1.195-.93zm-7.433.93a.847.847 0 000 .796l1.195 3.586 1.194-3.586a.847.847 0 000-.796C44.38.398 43.848 0 43.317 0c-.531 0-1.062.398-1.195.93zM36.15 11.952c.53 0 1.062-.398 1.194-.93a.847.847 0 000-.796L36.15 6.64l-1.195 3.586a.847.847 0 000 .797c.133.53.664.93 1.195.93zm-6.238 0c.53 0 1.062-.398 1.195-.93a.847.847 0 000-.796L29.912 6.64l-1.194 3.586a.847.847 0 000 .797c.265.53.663.93 1.194.93zM33.097 0c.531 0 1.062.398 1.195.93a.847.847 0 010 .796l-1.195 3.586-1.194-3.586a.847.847 0 010-.796c.133-.532.663-.93 1.194-.93zm13.405 11.952c.531 0 1.062-.398 1.195-.93a.847.847 0 000-.796L46.502 6.64l-1.194 3.586a.847.847 0 000 .797c.132.53.53.93 1.194.93z" fill="#fff"/></svg>