<?xml version="1.0" encoding="utf-8"?><svg viewBox="0 0 87 31" xmlns="http://www.w3.org/2000/svg" xmlns:xlink="http://www.w3.org/1999/xlink"><style>:root>svg{display:none}:root>svg:target{display:block}</style><svg fill="none" viewBox="0 0 87 31" id="arrow" xmlns="http://www.w3.org/2000/svg"><path d="M1 1l42.5 28L86 1" stroke="#fff" stroke-width="2"/></svg><svg fill="none" viewBox="0 0 26 26" id="fb" xmlns="http://www.w3.org/2000/svg"><path d="M19.499.005L16.127 0C12.34 0 9.892 2.511 9.892 6.399v2.95h-3.39a.53.53 0 00-.53.53v4.275c0 .293.237.53.53.53h3.39V25.47c0 .293.237.53.53.53h4.423a.53.53 0 00.53-.53V14.684h3.963a.53.53 0 00.53-.53l.002-4.275a.53.53 0 00-.53-.53h-3.965V6.848c0-1.202.286-1.812 1.852-1.812l2.271-.001a.53.53 0 00.53-.53V.535a.53.53 0 00-.53-.53z" fill="#0A2756"/></svg><svg fill="none" viewBox="0 0 29 20" id="mail" xmlns="http://www.w3.org/2000/svg"><rect x="1.818" y="1.091" width="24.546" height="18.818" rx="3" fill="#0A2756"/><path d="M1 1.972l11.95 10.133s.443.44.886.44.885-.44.885-.44L28 1.09" stroke="#fff" stroke-width="2"/></svg></svg>